<svg width="28" height="29" viewBox="0 0 28 29" fill="none" xmlns="http://www.w3.org/2000/svg">
<g filter="url(#filter0_d_634_9512)">
<path d="M15.1072 0C10.0296 1.72803 5.74643 5.25083 4 10.5C5.72649 15.6893 9.96941 19.2515 15.1072 21C19.6759 17.4456 22.1672 14.591 24 10.5C21.3693 8.71775 20.2642 7.80021 18.1314 5.04227C15.2738 6.38147 12.7864 7.94215 10.583 10.443C11.3737 11.5796 12.6865 12.6405 13.748 13.5121C15.2949 12.365 16.4746 11.2473 17.2387 10.2883C17.7179 10.8791 18.2581 11.2722 18.7727 11.6008C17.4435 13.8825 15.9519 15.1353 14.1099 16.3319C11.3432 14.8539 9.11921 12.2957 8.03831 10.1325C10.0643 6.76193 13.2419 4.48607 16.8526 3.21774C16.2677 2.1839 15.5009 1.22111 15.1072 0Z" fill="#FFD001"/>
<path d="M14.8085 0.635676C15.0017 1.10511 15.2378 1.5342 15.4796 1.93663C15.6204 2.17091 15.7556 2.38492 15.8867 2.59235C15.9642 2.71507 16.0403 2.83548 16.1152 2.95644C12.6503 4.29138 9.59752 6.56792 7.60977 9.87496L7.46828 10.1104L7.59104 10.356C8.71395 12.6032 11.008 15.2417 13.8743 16.7729L14.1347 16.912L14.3823 16.7512C16.266 15.5275 17.824 14.2227 19.2047 11.8524L19.4463 11.4377L19.0418 11.1794C18.5464 10.863 18.0573 10.5038 17.627 9.97333L17.2353 9.49026L16.8477 9.9767C16.1686 10.829 15.13 11.8309 13.7615 12.8762C12.8681 12.141 11.9045 11.3268 11.2284 10.4731C13.2116 8.31514 15.4329 6.89288 17.9835 5.66595C19.9035 8.11025 21.0461 9.08531 23.3697 10.6758C21.6262 14.4063 19.2619 17.1059 15.014 20.4383C10.1582 18.7176 6.19849 15.34 4.52793 10.5C6.19287 5.67544 10.0984 2.35905 14.8085 0.635676Z" stroke="black"/>
</g>
<defs>
<filter id="filter0_d_634_9512" x="0" y="0" width="28" height="29" filterUnits="userSpaceOnUse" color-interpolation-filters="sRGB">
<feFlood flood-opacity="0" result="BackgroundImageFix"/>
<feColorMatrix in="SourceAlpha" type="matrix" values="0 0 0 0 0 0 0 0 0 0 0 0 0 0 0 0 0 0 127 0" result="hardAlpha"/>
<feOffset dy="4"/>
<feGaussianBlur stdDeviation="2"/>
<feComposite in2="hardAlpha" operator="out"/>
<feColorMatrix type="matrix" values="0 0 0 0 0 0 0 0 0 0 0 0 0 0 0 0 0 0 0.25 0"/>
<feBlend mode="normal" in2="BackgroundImageFix" result="effect1_dropShadow_634_9512"/>
<feBlend mode="normal" in="SourceGraphic" in2="effect1_dropShadow_634_9512" result="shape"/>
</filter>
</defs>
</svg>
